<svg width="148" height="111" viewBox="0 0 148 111" fill="none" xmlns="http://www.w3.org/2000/svg">
<g clip-path="url(#clip0_159_5392)">
<path d="M24.9164 89.568V107.958C24.9164 109.144 23.8906 110.173 22.5948 110.173C21.3665 110.173 20.3407 109.144 20.3407 107.958V97.1924L14.4018 107.984C13.9699 108.753 13.241 109.196 12.4447 109.196C11.6753 109.196 10.9465 108.753 10.5145 107.984L4.54865 97.1924V107.958C4.54865 109.144 3.54984 110.173 2.32157 110.173C1.02581 110.173 0 109.144 0 107.958V89.568C0 88.2256 1.0663 87.5479 2.05162 87.5479C2.98295 87.5479 3.84678 88.2256 4.3057 88.9945L12.4447 103.122L20.6107 88.9945C21.0696 88.2256 21.9334 87.5479 22.8647 87.5479C23.8501 87.5479 24.9164 88.2256 24.9164 89.568Z" fill="white"/>
<path d="M46.6743 89.5032C46.6743 89.9202 46.5798 90.2721 46.3369 90.598L39.6016 100.086V108.206C39.6016 109.353 38.5758 110.291 37.3745 110.291C36.2137 110.291 35.1879 109.366 35.1879 108.206V100.073L28.4527 90.5849C28.2232 90.2591 28.1152 89.9072 28.1152 89.4901C28.1152 88.3953 29.0061 87.5352 30.1669 87.5352C30.8282 87.5352 31.3951 87.8219 31.7866 88.3302L37.361 96.3977L42.9625 88.3302C43.3269 87.8219 43.9208 87.5352 44.5822 87.5352C45.7565 87.5482 46.6743 88.4084 46.6743 89.5032Z" fill="white"/>
<path d="M76.477 103.527C76.477 107.398 73.5616 110.057 67.9196 110.057H61.8862C60.4555 110.057 59.4297 109.066 59.4297 107.685V90.0117C59.4297 88.6302 60.4555 87.6396 61.8862 87.6396H67.5957C71.7124 87.6396 74.8978 89.5295 74.8978 93.283C74.8978 95.1077 74.1015 96.7759 71.8069 97.61C75.3162 98.8873 76.477 100.999 76.477 103.527ZM63.8974 96.424H67.5822C69.4043 96.424 70.5381 95.3683 70.5381 93.7913C70.5381 92.1882 69.4043 91.2889 67.5822 91.2889H63.8974V96.424ZM72.1308 103.149C72.1308 101.39 71.0375 99.7214 67.9196 99.7214H63.9109V106.42H67.9196C70.997 106.42 72.1308 104.883 72.1308 103.149Z" fill="white"/>
<path d="M101.92 98.8611C101.92 105.625 96.1836 110.304 90.3392 110.304C84.5353 110.304 78.7988 105.625 78.7988 98.8611C78.7988 92.0969 84.5353 87.418 90.3392 87.418C96.1836 87.418 101.92 92.0969 101.92 98.8611ZM83.469 98.8611C83.469 103.253 86.6814 106.199 90.3392 106.199C94.024 106.199 97.2364 103.253 97.2364 98.8611C97.2364 94.4689 94.051 91.5234 90.3392 91.5234C86.6949 91.5234 83.469 94.4689 83.469 98.8611Z" fill="white"/>
<path d="M124.811 89.7635V108.153C124.811 109.535 123.88 110.265 122.719 110.265C121.76 110.265 120.991 109.782 120.397 108.987L110.112 95.472V108.062C110.112 109.248 109.113 110.278 107.885 110.278C106.589 110.278 105.563 109.248 105.563 108.062V89.6332C105.563 88.2907 106.495 87.5479 107.683 87.5479C108.641 87.5479 109.41 88.0301 109.977 88.799L120.262 102.354V89.7635C120.262 88.5775 121.288 87.5479 122.516 87.5479C123.812 87.5479 124.811 88.5775 124.811 89.7635Z" fill="white"/>
<path d="M148 98.7569C148 106.121 142.695 110.07 136.122 110.07H131.25C129.819 110.07 128.793 109.079 128.793 107.698V90.0117C128.793 88.6302 129.819 87.6396 131.25 87.6396H136.122C142.695 87.6396 148 91.5887 148 98.7569ZM143.519 98.7569C143.519 93.5958 140.792 91.2889 136.122 91.2889H133.274V106.407H136.122C140.806 106.42 143.519 104.114 143.519 98.7569Z" fill="white"/>
<path d="M138.916 2.42846C136.311 0.981774 133.476 0.291016 130.682 0.291016C124.987 0.291016 119.453 3.14528 116.402 8.25429L106.158 25.3929L89.7446 52.8408C85.1959 60.4522 87.8954 70.1879 95.7779 74.5801C99.0443 76.4048 102.689 77.0173 106.158 76.5742C111.057 75.9486 115.619 73.2116 118.278 68.7543L144.936 24.1678C149.484 16.5434 146.785 6.82064 138.916 2.42846Z" fill="white"/>
<path d="M95.5761 2.42846C92.9711 0.981774 90.1366 0.291016 87.3426 0.291016C81.6467 0.291016 76.1127 3.14528 73.0623 8.25429L62.8177 25.3929L46.4047 52.8408C41.8561 60.4522 44.5556 70.1879 52.4381 74.5801C55.7045 76.4048 59.3488 77.0173 62.8177 76.5742C67.7173 75.9486 72.2794 73.2116 74.9384 68.7543L101.596 24.1678C106.158 16.5434 103.459 6.82064 95.5761 2.42846Z" fill="white"/>
<path d="M52.2353 2.42846C49.6303 0.981774 46.8093 0.291016 44.0018 0.291016C38.3059 0.291016 32.7719 3.14528 29.7215 8.25429L19.4769 25.3929L3.06391 52.8408C-1.48474 60.4522 1.21476 70.1879 9.09729 74.5801C12.3637 76.4048 16.008 77.0173 19.4769 76.5742C24.3764 75.9486 28.9386 73.2116 31.5976 68.7543L58.2551 24.1678C62.8173 16.5434 60.1178 6.82064 52.2353 2.42846Z" fill="white"/>
</g>
<defs>
<clipPath id="clip0_159_5392">
<rect width="148" height="110" fill="white" transform="translate(0 0.291016)"/>
</clipPath>
</defs>
</svg>
