<svg width="484" height="53" viewBox="0 0 484 53" fill="none" xmlns="http://www.w3.org/2000/svg">
<path d="M24.3896 23.3672V27.7397H7.40479V23.3672H24.3896ZM8.76709 10.0078V42H3.25195V10.0078H8.76709ZM28.6304 10.0078V42H23.1372V10.0078H28.6304ZM33.6621 30.3765V29.8711C33.6621 28.1572 33.9111 26.5679 34.4092 25.103C34.9072 23.6235 35.625 22.3418 36.5625 21.2578C37.5146 20.1592 38.6719 19.3096 40.0342 18.709C41.4111 18.0938 42.9639 17.7861 44.6924 17.7861C46.4355 17.7861 47.9883 18.0938 49.3506 18.709C50.7275 19.3096 51.8921 20.1592 52.8442 21.2578C53.7964 22.3418 54.5215 23.6235 55.0195 25.103C55.5176 26.5679 55.7666 28.1572 55.7666 29.8711V30.3765C55.7666 32.0903 55.5176 33.6797 55.0195 35.1445C54.5215 36.6094 53.7964 37.8911 52.8442 38.9897C51.8921 40.0737 50.7349 40.9233 49.3726 41.5386C48.0103 42.1392 46.4648 42.4395 44.7363 42.4395C42.9932 42.4395 41.4331 42.1392 40.0562 41.5386C38.6938 40.9233 37.5366 40.0737 36.5845 38.9897C35.6323 37.8911 34.9072 36.6094 34.4092 35.1445C33.9111 33.6797 33.6621 32.0903 33.6621 30.3765ZM38.9575 29.8711V30.3765C38.9575 31.4458 39.0674 32.4565 39.2871 33.4087C39.5068 34.3608 39.8511 35.1958 40.3198 35.9136C40.7886 36.6313 41.3892 37.1953 42.1216 37.6055C42.854 38.0156 43.7256 38.2207 44.7363 38.2207C45.7178 38.2207 46.5674 38.0156 47.2852 37.6055C48.0176 37.1953 48.6182 36.6313 49.0869 35.9136C49.5557 35.1958 49.8999 34.3608 50.1196 33.4087C50.354 32.4565 50.4712 31.4458 50.4712 30.3765V29.8711C50.4712 28.8164 50.354 27.8203 50.1196 26.8828C49.8999 25.9307 49.5483 25.0884 49.0649 24.356C48.5962 23.6235 47.9956 23.0522 47.2632 22.6421C46.5454 22.2173 45.6885 22.0049 44.6924 22.0049C43.6963 22.0049 42.832 22.2173 42.0996 22.6421C41.3818 23.0522 40.7886 23.6235 40.3198 24.356C39.8511 25.0884 39.5068 25.9307 39.2871 26.8828C39.0674 27.8203 38.9575 28.8164 38.9575 29.8711ZM73.6084 37.2319V25.894C73.6084 25.0444 73.4546 24.312 73.147 23.6968C72.8394 23.0815 72.3706 22.6055 71.7407 22.2686C71.1255 21.9316 70.3491 21.7632 69.4116 21.7632C68.5474 21.7632 67.8003 21.9097 67.1704 22.2026C66.5405 22.4956 66.0498 22.8911 65.6982 23.3892C65.3467 23.8872 65.1709 24.4512 65.1709 25.0811H59.8975C59.8975 24.1436 60.1245 23.2354 60.5786 22.3564C61.0327 21.4775 61.6919 20.6938 62.5562 20.0054C63.4204 19.3169 64.4531 18.7749 65.6543 18.3794C66.8555 17.9839 68.2031 17.7861 69.6973 17.7861C71.4844 17.7861 73.0664 18.0864 74.4434 18.687C75.835 19.2876 76.9263 20.1958 77.7173 21.4116C78.5229 22.6128 78.9258 24.1216 78.9258 25.938V36.5068C78.9258 37.5908 78.999 38.5649 79.1455 39.4292C79.3066 40.2788 79.5337 41.0186 79.8267 41.6484V42H74.3994C74.1504 41.4287 73.9526 40.7036 73.8062 39.8247C73.6743 38.9312 73.6084 38.0669 73.6084 37.2319ZM74.3774 27.542L74.4214 30.8159H70.6201C69.6387 30.8159 68.7744 30.9111 68.0273 31.1016C67.2803 31.2773 66.6577 31.541 66.1597 31.8926C65.6616 32.2441 65.2881 32.6689 65.0391 33.167C64.79 33.665 64.6655 34.229 64.6655 34.8589C64.6655 35.4888 64.812 36.0674 65.105 36.5947C65.3979 37.1074 65.8228 37.5103 66.3794 37.8032C66.9507 38.0962 67.6392 38.2427 68.4448 38.2427C69.5288 38.2427 70.4736 38.0229 71.2793 37.5835C72.0996 37.1294 72.7441 36.5801 73.2129 35.9355C73.6816 35.2764 73.9307 34.6538 73.96 34.0679L75.6738 36.4189C75.498 37.0195 75.1978 37.6641 74.7729 38.3525C74.3481 39.041 73.7915 39.7002 73.103 40.3301C72.4292 40.9453 71.6162 41.4507 70.6641 41.8462C69.7266 42.2417 68.6426 42.4395 67.4121 42.4395C65.8594 42.4395 64.4751 42.1318 63.2593 41.5166C62.0435 40.8867 61.0913 40.0444 60.4028 38.9897C59.7144 37.9204 59.3701 36.7119 59.3701 35.3643C59.3701 34.1045 59.6045 32.9912 60.0732 32.0244C60.5566 31.043 61.2598 30.2227 62.1826 29.5635C63.1201 28.9043 64.2627 28.4062 65.6104 28.0693C66.958 27.7178 68.4961 27.542 70.2246 27.542H74.3774ZM65.105 47.0977C65.105 46.3359 65.3687 45.6987 65.896 45.186C66.438 44.6733 67.1777 44.417 68.1152 44.417C69.0527 44.417 69.7925 44.6733 70.3345 45.186C70.8765 45.6987 71.1475 46.3359 71.1475 47.0977C71.1475 47.8447 70.8765 48.4746 70.3345 48.9873C69.7925 49.5 69.0527 49.7563 68.1152 49.7563C67.1777 49.7563 66.438 49.5 65.896 48.9873C65.3687 48.4746 65.105 47.8447 65.105 47.0977ZM95.3613 18.2256V22.0928H81.958V18.2256H95.3613ZM85.8252 12.4028H91.1206V35.4302C91.1206 36.1626 91.2231 36.7266 91.4282 37.1221C91.6479 37.5029 91.9482 37.7593 92.3291 37.8911C92.71 38.0229 93.1567 38.0889 93.6694 38.0889C94.0356 38.0889 94.3872 38.0669 94.7241 38.0229C95.061 37.979 95.332 37.9351 95.5371 37.8911L95.5591 41.9341C95.1196 42.0659 94.6069 42.1831 94.021 42.2856C93.4497 42.3882 92.7905 42.4395 92.0435 42.4395C90.8276 42.4395 89.751 42.2271 88.8135 41.8022C87.876 41.3628 87.1436 40.6523 86.6162 39.6709C86.0889 38.6895 85.8252 37.3857 85.8252 35.7598V12.4028ZM125.156 37.0781V8.25H130.474V42H125.662L125.156 37.0781ZM109.688 30.3765V29.915C109.688 28.1133 109.9 26.4727 110.325 24.9932C110.75 23.499 111.365 22.2173 112.17 21.1479C112.976 20.064 113.958 19.2363 115.115 18.665C116.272 18.0791 117.576 17.7861 119.026 17.7861C120.461 17.7861 121.721 18.0645 122.805 18.6211C123.889 19.1777 124.812 19.9761 125.574 21.0161C126.335 22.0415 126.943 23.272 127.397 24.7075C127.852 26.1284 128.174 27.7104 128.364 29.4536V30.9258C128.174 32.625 127.852 34.1777 127.397 35.584C126.943 36.9902 126.335 38.2061 125.574 39.2314C124.812 40.2568 123.882 41.0479 122.783 41.6045C121.699 42.1611 120.432 42.4395 118.982 42.4395C117.546 42.4395 116.25 42.1392 115.093 41.5386C113.95 40.938 112.976 40.0957 112.17 39.0117C111.365 37.9277 110.75 36.6533 110.325 35.1885C109.9 33.709 109.688 32.105 109.688 30.3765ZM114.983 29.915V30.3765C114.983 31.4604 115.078 32.4712 115.269 33.4087C115.474 34.3462 115.789 35.1738 116.213 35.8916C116.638 36.5947 117.188 37.1514 117.861 37.5615C118.55 37.957 119.37 38.1548 120.322 38.1548C121.523 38.1548 122.512 37.8911 123.289 37.3638C124.065 36.8364 124.673 36.126 125.112 35.2324C125.566 34.3242 125.874 33.3135 126.035 32.2002V28.2231C125.947 27.3589 125.764 26.5532 125.486 25.8062C125.222 25.0591 124.863 24.4072 124.409 23.8506C123.955 23.2793 123.391 22.8398 122.717 22.5322C122.058 22.21 121.274 22.0488 120.366 22.0488C119.399 22.0488 118.579 22.2539 117.905 22.6641C117.231 23.0742 116.675 23.6382 116.235 24.356C115.811 25.0737 115.496 25.9087 115.291 26.8608C115.085 27.813 114.983 28.8311 114.983 29.915ZM134.231 11.3921V15.0615H119.465V11.3921H134.231ZM137.329 30.3765V29.8711C137.329 28.1572 137.578 26.5679 138.076 25.103C138.574 23.6235 139.292 22.3418 140.229 21.2578C141.182 20.1592 142.339 19.3096 143.701 18.709C145.078 18.0938 146.631 17.7861 148.359 17.7861C150.103 17.7861 151.655 18.0938 153.018 18.709C154.395 19.3096 155.559 20.1592 156.511 21.2578C157.463 22.3418 158.188 23.6235 158.687 25.103C159.185 26.5679 159.434 28.1572 159.434 29.8711V30.3765C159.434 32.0903 159.185 33.6797 158.687 35.1445C158.188 36.6094 157.463 37.8911 156.511 38.9897C155.559 40.0737 154.402 40.9233 153.04 41.5386C151.677 42.1392 150.132 42.4395 148.403 42.4395C146.66 42.4395 145.1 42.1392 143.723 41.5386C142.361 40.9233 141.204 40.0737 140.251 38.9897C139.299 37.8911 138.574 36.6094 138.076 35.1445C137.578 33.6797 137.329 32.0903 137.329 30.3765ZM142.625 29.8711V30.3765C142.625 31.4458 142.734 32.4565 142.954 33.4087C143.174 34.3608 143.518 35.1958 143.987 35.9136C144.456 36.6313 145.056 37.1953 145.789 37.6055C146.521 38.0156 147.393 38.2207 148.403 38.2207C149.385 38.2207 150.234 38.0156 150.952 37.6055C151.685 37.1953 152.285 36.6313 152.754 35.9136C153.223 35.1958 153.567 34.3608 153.787 33.4087C154.021 32.4565 154.138 31.4458 154.138 30.3765V29.8711C154.138 28.8164 154.021 27.8203 153.787 26.8828C153.567 25.9307 153.215 25.0884 152.732 24.356C152.263 23.6235 151.663 23.0522 150.93 22.6421C150.212 22.2173 149.355 22.0049 148.359 22.0049C147.363 22.0049 146.499 22.2173 145.767 22.6421C145.049 23.0522 144.456 23.6235 143.987 24.356C143.518 25.0884 143.174 25.9307 142.954 26.8828C142.734 27.8203 142.625 28.8164 142.625 29.8711ZM149.832 8.25L155.918 14.3145V14.5562H151.633L148.271 11.1064L144.91 14.5562H140.713V14.2705L146.711 8.25H149.832ZM145.283 47.3613C145.283 46.5996 145.547 45.9624 146.074 45.4497C146.616 44.937 147.356 44.6807 148.293 44.6807C149.231 44.6807 149.971 44.937 150.513 45.4497C151.055 45.9624 151.326 46.5996 151.326 47.3613C151.326 48.1084 151.055 48.7383 150.513 49.251C149.971 49.7637 149.231 50.02 148.293 50.02C147.356 50.02 146.616 49.7637 146.074 49.251C145.547 48.7383 145.283 48.1084 145.283 47.3613ZM169.124 23.3013V42H163.828V18.2256H168.816L169.124 23.3013ZM168.179 29.2339L166.465 29.2119C166.479 27.5273 166.714 25.9819 167.168 24.5757C167.637 23.1694 168.281 21.9609 169.102 20.9502C169.937 19.9395 170.933 19.1631 172.09 18.6211C173.247 18.0645 174.536 17.7861 175.957 17.7861C177.1 17.7861 178.132 17.9473 179.055 18.2695C179.993 18.5771 180.791 19.0825 181.45 19.7856C182.124 20.4888 182.637 21.4043 182.988 22.5322C183.34 23.6455 183.516 25.0151 183.516 26.6411V42H178.198V26.6191C178.198 25.4766 178.03 24.5757 177.693 23.9165C177.371 23.2427 176.895 22.7666 176.265 22.4883C175.649 22.1953 174.88 22.0488 173.958 22.0488C173.049 22.0488 172.236 22.2393 171.519 22.6201C170.801 23.001 170.193 23.521 169.695 24.1802C169.211 24.8394 168.838 25.6011 168.574 26.4653C168.311 27.3296 168.179 28.2524 168.179 29.2339ZM204.148 18.2256H208.96V41.3408C208.96 43.4795 208.506 45.2959 207.598 46.79C206.689 48.2842 205.422 49.4194 203.796 50.1958C202.17 50.9868 200.288 51.3823 198.149 51.3823C197.241 51.3823 196.23 51.2505 195.117 50.9868C194.019 50.7231 192.949 50.2983 191.909 49.7124C190.884 49.1411 190.027 48.3867 189.338 47.4492L191.821 44.3291C192.671 45.3398 193.608 46.0796 194.634 46.5483C195.659 47.0171 196.736 47.2515 197.864 47.2515C199.08 47.2515 200.112 47.0244 200.962 46.5703C201.826 46.1309 202.493 45.479 202.961 44.6147C203.43 43.7505 203.665 42.6958 203.665 41.4507V23.6089L204.148 18.2256ZM187.998 30.3765V29.915C187.998 28.1133 188.218 26.4727 188.657 24.9932C189.097 23.499 189.727 22.2173 190.547 21.1479C191.367 20.064 192.363 19.2363 193.535 18.665C194.707 18.0791 196.033 17.7861 197.512 17.7861C199.05 17.7861 200.361 18.0645 201.445 18.6211C202.544 19.1777 203.459 19.9761 204.192 21.0161C204.924 22.0415 205.496 23.272 205.906 24.7075C206.331 26.1284 206.646 27.7104 206.851 29.4536V30.9258C206.66 32.625 206.338 34.1777 205.884 35.584C205.43 36.9902 204.829 38.2061 204.082 39.2314C203.335 40.2568 202.412 41.0479 201.313 41.6045C200.229 42.1611 198.948 42.4395 197.468 42.4395C196.018 42.4395 194.707 42.1392 193.535 41.5386C192.378 40.938 191.382 40.0957 190.547 39.0117C189.727 37.9277 189.097 36.6533 188.657 35.1885C188.218 33.709 187.998 32.105 187.998 30.3765ZM193.293 29.915V30.3765C193.293 31.4604 193.396 32.4712 193.601 33.4087C193.821 34.3462 194.15 35.1738 194.59 35.8916C195.044 36.5947 195.615 37.1514 196.304 37.5615C197.007 37.957 197.834 38.1548 198.787 38.1548C200.032 38.1548 201.05 37.8911 201.841 37.3638C202.646 36.8364 203.262 36.126 203.687 35.2324C204.126 34.3242 204.434 33.3135 204.609 32.2002V28.2231C204.521 27.3589 204.338 26.5532 204.06 25.8062C203.796 25.0591 203.438 24.4072 202.983 23.8506C202.529 23.2793 201.958 22.8398 201.27 22.5322C200.581 22.21 199.768 22.0488 198.831 22.0488C197.878 22.0488 197.051 22.2539 196.348 22.6641C195.645 23.0742 195.066 23.6382 194.612 24.356C194.172 25.0737 193.843 25.9087 193.623 26.8608C193.403 27.813 193.293 28.8311 193.293 29.915ZM235.371 38.2207C236.235 38.2207 237.012 38.0522 237.7 37.7153C238.403 37.3638 238.967 36.8804 239.392 36.2651C239.832 35.6499 240.073 34.9395 240.117 34.1338H245.105C245.076 35.6719 244.622 37.0708 243.743 38.3306C242.864 39.5903 241.699 40.5938 240.249 41.3408C238.799 42.0732 237.195 42.4395 235.437 42.4395C233.621 42.4395 232.039 42.1318 230.691 41.5166C229.343 40.8867 228.223 40.0225 227.329 38.9238C226.436 37.8252 225.762 36.5581 225.308 35.1226C224.868 33.687 224.648 32.1489 224.648 30.5083V29.7393C224.648 28.0986 224.868 26.5605 225.308 25.125C225.762 23.6748 226.436 22.4004 227.329 21.3018C228.223 20.2031 229.343 19.3462 230.691 18.731C232.039 18.1011 233.613 17.7861 235.415 17.7861C237.319 17.7861 238.989 18.167 240.425 18.9287C241.86 19.6758 242.988 20.7231 243.809 22.0708C244.644 23.4038 245.076 24.9565 245.105 26.729H240.117C240.073 25.8501 239.854 25.0591 239.458 24.356C239.077 23.6382 238.535 23.0669 237.832 22.6421C237.144 22.2173 236.316 22.0049 235.349 22.0049C234.28 22.0049 233.394 22.2246 232.69 22.6641C231.987 23.0889 231.438 23.6748 231.042 24.4219C230.647 25.1543 230.361 25.9819 230.186 26.9048C230.024 27.813 229.944 28.7578 229.944 29.7393V30.5083C229.944 31.4897 230.024 32.4419 230.186 33.3647C230.347 34.2876 230.625 35.1152 231.021 35.8477C231.431 36.5654 231.987 37.144 232.69 37.5835C233.394 38.0083 234.287 38.2207 235.371 38.2207ZM263.474 36.397V18.2256H268.792V42H263.782L263.474 36.397ZM264.221 31.4531L266.001 31.4092C266.001 33.0059 265.825 34.478 265.474 35.8257C265.122 37.1587 264.58 38.3232 263.848 39.3193C263.115 40.3008 262.178 41.0698 261.035 41.6265C259.893 42.1685 258.523 42.4395 256.926 42.4395C255.769 42.4395 254.707 42.271 253.74 41.9341C252.773 41.5972 251.938 41.0771 251.235 40.374C250.547 39.6709 250.012 38.7554 249.631 37.6274C249.25 36.4995 249.06 35.1519 249.06 33.5845V18.2256H254.355V33.6284C254.355 34.4927 254.458 35.2178 254.663 35.8037C254.868 36.375 255.146 36.8364 255.498 37.188C255.85 37.5396 256.26 37.7886 256.729 37.9351C257.197 38.0815 257.695 38.1548 258.223 38.1548C259.731 38.1548 260.918 37.8618 261.782 37.2759C262.661 36.6753 263.284 35.8696 263.65 34.8589C264.031 33.8481 264.221 32.7129 264.221 31.4531ZM260.969 14.2925H257.036L256.838 11.1504C257.585 11.1064 258.186 11.0332 258.64 10.9307C259.094 10.8135 259.424 10.6523 259.629 10.4473C259.849 10.2275 259.958 9.94189 259.958 9.59033C259.958 9.29736 259.871 9.04834 259.695 8.84326C259.534 8.63818 259.299 8.47705 258.992 8.35986C258.684 8.22803 258.325 8.14014 257.915 8.09619C257.505 8.0376 257.058 8.0083 256.575 8.0083L256.729 5.34961C257.974 5.34961 259.065 5.45215 260.002 5.65723C260.955 5.84766 261.746 6.12598 262.375 6.49219C263.02 6.8584 263.503 7.29785 263.826 7.81055C264.163 8.32324 264.331 8.90186 264.331 9.54639C264.331 10.6011 263.979 11.3774 263.276 11.8755C262.573 12.3735 261.804 12.6812 260.969 12.7983V14.2925ZM287.622 37.2319V25.894C287.622 25.0444 287.468 24.312 287.161 23.6968C286.853 23.0815 286.384 22.6055 285.754 22.2686C285.139 21.9316 284.363 21.7632 283.425 21.7632C282.561 21.7632 281.814 21.9097 281.184 22.2026C280.554 22.4956 280.063 22.8911 279.712 23.3892C279.36 23.8872 279.185 24.4512 279.185 25.0811H273.911C273.911 24.1436 274.138 23.2354 274.592 22.3564C275.046 21.4775 275.706 20.6938 276.57 20.0054C277.434 19.3169 278.467 18.7749 279.668 18.3794C280.869 17.9839 282.217 17.7861 283.711 17.7861C285.498 17.7861 287.08 18.0864 288.457 18.687C289.849 19.2876 290.94 20.1958 291.731 21.4116C292.537 22.6128 292.939 24.1216 292.939 25.938V36.5068C292.939 37.5908 293.013 38.5649 293.159 39.4292C293.32 40.2788 293.547 41.0186 293.84 41.6484V42H288.413C288.164 41.4287 287.966 40.7036 287.82 39.8247C287.688 38.9312 287.622 38.0669 287.622 37.2319ZM288.391 27.542L288.435 30.8159H284.634C283.652 30.8159 282.788 30.9111 282.041 31.1016C281.294 31.2773 280.671 31.541 280.173 31.8926C279.675 32.2441 279.302 32.6689 279.053 33.167C278.804 33.665 278.679 34.229 278.679 34.8589C278.679 35.4888 278.826 36.0674 279.119 36.5947C279.412 37.1074 279.836 37.5103 280.393 37.8032C280.964 38.0962 281.653 38.2427 282.458 38.2427C283.542 38.2427 284.487 38.0229 285.293 37.5835C286.113 37.1294 286.758 36.5801 287.227 35.9355C287.695 35.2764 287.944 34.6538 287.974 34.0679L289.688 36.4189C289.512 37.0195 289.211 37.6641 288.787 38.3525C288.362 39.041 287.805 39.7002 287.117 40.3301C286.443 40.9453 285.63 41.4507 284.678 41.8462C283.74 42.2417 282.656 42.4395 281.426 42.4395C279.873 42.4395 278.489 42.1318 277.273 41.5166C276.057 40.8867 275.105 40.0444 274.417 38.9897C273.728 37.9204 273.384 36.7119 273.384 35.3643C273.384 34.1045 273.618 32.9912 274.087 32.0244C274.57 31.043 275.273 30.2227 276.196 29.5635C277.134 28.9043 278.276 28.4062 279.624 28.0693C280.972 27.7178 282.51 27.542 284.238 27.542H288.391ZM312.451 10.0078H317.373L326.624 34.6831L335.852 10.0078H340.774L328.557 42H324.646L312.451 10.0078ZM310.21 10.0078H314.89L315.703 31.3652V42H310.21V10.0078ZM338.335 10.0078H343.037V42H337.522V31.3652L338.335 10.0078ZM355.957 39.4072L362.417 18.2256H368.086L358.55 45.6255C358.33 46.2114 358.044 46.8486 357.693 47.5371C357.341 48.2256 356.88 48.8774 356.309 49.4927C355.752 50.1226 355.056 50.6279 354.221 51.0088C353.386 51.4043 352.375 51.6021 351.189 51.6021C350.72 51.6021 350.266 51.5581 349.827 51.4702C349.402 51.397 348.999 51.3164 348.618 51.2285L348.596 47.1855C348.743 47.2002 348.918 47.2148 349.124 47.2295C349.343 47.2441 349.519 47.2515 349.651 47.2515C350.53 47.2515 351.262 47.1416 351.848 46.9219C352.434 46.7168 352.91 46.3799 353.276 45.9111C353.657 45.4424 353.979 44.8125 354.243 44.0215L355.957 39.4072ZM352.31 18.2256L357.957 36.0234L358.901 41.6045L355.232 42.5493L346.597 18.2256H352.31ZM394.849 27.542H386.697L386.653 23.521H393.772C394.973 23.521 395.991 23.3452 396.826 22.9937C397.676 22.6274 398.32 22.1074 398.76 21.4336C399.199 20.7451 399.419 19.9175 399.419 18.9507C399.419 17.8813 399.214 17.0098 398.804 16.3359C398.394 15.6621 397.764 15.1714 396.914 14.8638C396.079 14.5562 395.01 14.4023 393.706 14.4023H388.367V42H382.852V10.0078H393.706C395.464 10.0078 397.031 10.1763 398.408 10.5132C399.8 10.8501 400.979 11.3774 401.946 12.0952C402.927 12.7983 403.667 13.6919 404.165 14.7759C404.678 15.8599 404.934 17.1489 404.934 18.6431C404.934 19.9614 404.619 21.1699 403.989 22.2686C403.359 23.3525 402.429 24.2388 401.199 24.9272C399.968 25.6157 398.438 26.0259 396.606 26.1577L394.849 27.542ZM394.607 42H384.961L387.444 37.6274H394.607C395.852 37.6274 396.892 37.4224 397.727 37.0122C398.562 36.5874 399.185 36.0088 399.595 35.2764C400.02 34.5293 400.232 33.6577 400.232 32.6616C400.232 31.6216 400.049 30.7207 399.683 29.959C399.316 29.1826 398.738 28.5894 397.947 28.1792C397.156 27.7544 396.123 27.542 394.849 27.542H388.652L388.696 23.521H396.76L398.013 25.0371C399.771 25.0957 401.213 25.4839 402.341 26.2017C403.484 26.9194 404.333 27.8496 404.89 28.9922C405.447 30.1348 405.725 31.3652 405.725 32.6836C405.725 34.7197 405.278 36.4263 404.385 37.8032C403.506 39.1802 402.239 40.2275 400.583 40.9453C398.928 41.6484 396.936 42 394.607 42ZM409.746 30.3765V29.8711C409.746 28.1572 409.995 26.5679 410.493 25.103C410.991 23.6235 411.709 22.3418 412.646 21.2578C413.599 20.1592 414.756 19.3096 416.118 18.709C417.495 18.0938 419.048 17.7861 420.776 17.7861C422.52 17.7861 424.072 18.0938 425.435 18.709C426.812 19.3096 427.976 20.1592 428.928 21.2578C429.88 22.3418 430.605 23.6235 431.104 25.103C431.602 26.5679 431.851 28.1572 431.851 29.8711V30.3765C431.851 32.0903 431.602 33.6797 431.104 35.1445C430.605 36.6094 429.88 37.8911 428.928 38.9897C427.976 40.0737 426.819 40.9233 425.457 41.5386C424.094 42.1392 422.549 42.4395 420.82 42.4395C419.077 42.4395 417.517 42.1392 416.14 41.5386C414.778 40.9233 413.621 40.0737 412.668 38.9897C411.716 37.8911 410.991 36.6094 410.493 35.1445C409.995 33.6797 409.746 32.0903 409.746 30.3765ZM415.042 29.8711V30.3765C415.042 31.4458 415.151 32.4565 415.371 33.4087C415.591 34.3608 415.935 35.1958 416.404 35.9136C416.873 36.6313 417.473 37.1953 418.206 37.6055C418.938 38.0156 419.81 38.2207 420.82 38.2207C421.802 38.2207 422.651 38.0156 423.369 37.6055C424.102 37.1953 424.702 36.6313 425.171 35.9136C425.64 35.1958 425.984 34.3608 426.204 33.4087C426.438 32.4565 426.555 31.4458 426.555 30.3765V29.8711C426.555 28.8164 426.438 27.8203 426.204 26.8828C425.984 25.9307 425.632 25.0884 425.149 24.356C424.68 23.6235 424.08 23.0522 423.347 22.6421C422.629 22.2173 421.772 22.0049 420.776 22.0049C419.78 22.0049 418.916 22.2173 418.184 22.6421C417.466 23.0522 416.873 23.6235 416.404 24.356C415.935 25.0884 415.591 25.9307 415.371 26.8828C415.151 27.8203 415.042 28.8164 415.042 29.8711ZM441.541 23.3013V42H436.245V18.2256H441.233L441.541 23.3013ZM440.596 29.2339L438.882 29.2119C438.896 27.5273 439.131 25.9819 439.585 24.5757C440.054 23.1694 440.698 21.9609 441.519 20.9502C442.354 19.9395 443.35 19.1631 444.507 18.6211C445.664 18.0645 446.953 17.7861 448.374 17.7861C449.517 17.7861 450.549 17.9473 451.472 18.2695C452.41 18.5771 453.208 19.0825 453.867 19.7856C454.541 20.4888 455.054 21.4043 455.405 22.5322C455.757 23.6455 455.933 25.0151 455.933 26.6411V42H450.615V26.6191C450.615 25.4766 450.447 24.5757 450.11 23.9165C449.788 23.2427 449.312 22.7666 448.682 22.4883C448.066 22.1953 447.297 22.0488 446.375 22.0488C445.466 22.0488 444.653 22.2393 443.936 22.6201C443.218 23.001 442.61 23.521 442.112 24.1802C441.628 24.8394 441.255 25.6011 440.991 26.4653C440.728 27.3296 440.596 28.2524 440.596 29.2339ZM475.84 37.0781V8.25H481.157V42H476.345L475.84 37.0781ZM460.371 30.3765V29.915C460.371 28.1133 460.583 26.4727 461.008 24.9932C461.433 23.499 462.048 22.2173 462.854 21.1479C463.66 20.064 464.641 19.2363 465.798 18.665C466.956 18.0791 468.259 17.7861 469.709 17.7861C471.145 17.7861 472.405 18.0645 473.489 18.6211C474.573 19.1777 475.496 19.9761 476.257 21.0161C477.019 22.0415 477.627 23.272 478.081 24.7075C478.535 26.1284 478.857 27.7104 479.048 29.4536V30.9258C478.857 32.625 478.535 34.1777 478.081 35.584C477.627 36.9902 477.019 38.2061 476.257 39.2314C475.496 40.2568 474.565 41.0479 473.467 41.6045C472.383 42.1611 471.116 42.4395 469.666 42.4395C468.23 42.4395 466.934 42.1392 465.776 41.5386C464.634 40.938 463.66 40.0957 462.854 39.0117C462.048 37.9277 461.433 36.6533 461.008 35.1885C460.583 33.709 460.371 32.105 460.371 30.3765ZM465.667 29.915V30.3765C465.667 31.4604 465.762 32.4712 465.952 33.4087C466.157 34.3462 466.472 35.1738 466.897 35.8916C467.322 36.5947 467.871 37.1514 468.545 37.5615C469.233 37.957 470.054 38.1548 471.006 38.1548C472.207 38.1548 473.196 37.8911 473.972 37.3638C474.749 36.8364 475.356 36.126 475.796 35.2324C476.25 34.3242 476.558 33.3135 476.719 32.2002V28.2231C476.631 27.3589 476.448 26.5532 476.169 25.8062C475.906 25.0591 475.547 24.4072 475.093 23.8506C474.639 23.2793 474.075 22.8398 473.401 22.5322C472.742 22.21 471.958 22.0488 471.05 22.0488C470.083 22.0488 469.263 22.2539 468.589 22.6641C467.915 23.0742 467.358 23.6382 466.919 24.356C466.494 25.0737 466.179 25.9087 465.974 26.8608C465.769 27.813 465.667 28.8311 465.667 29.915Z" fill="white"/>
</svg>
